<svg id="Layer_1_copy" data-name="Layer 1 copy" xmlns="http://www.w3.org/2000/svg" viewBox="0 0 88.37 11.41"><defs><style>.cls-1{fill:#fdfdfd;}.cls-2{fill:#fff;}.cls-3{fill:none;stroke:#fed13a;stroke-miterlimit:10;stroke-width:0.5px;}</style></defs><path class="cls-1" d="M162,190.38l.11,1,.17-.84,1.36-6h.9l1.33,6,.17.87.12-1,1-5.83h1.07l-1.7,8.53h-1l-1.43-6.22-.08-.5-.09.5-1.48,6.22h-1l-1.69-8.53H161Z" transform="translate(-146.04 -183.07)"/><path class="cls-1" d="M170.66,193.07h-1.07v-8.53h1.07Z" transform="translate(-146.04 -183.07)"/><path class="cls-1" d="M178.11,193.07H177l-3.41-6.58v6.58h-1.08v-8.53h1.08l3.43,6.6v-6.6h1.06Z" transform="translate(-146.04 -183.07)"/><path class="cls-1" d="M180,193.07v-8.53h2a2.93,2.93,0,0,1,2.32.93,3.84,3.84,0,0,1,.83,2.63v1.43a3.77,3.77,0,0,1-.84,2.62,3.14,3.14,0,0,1-2.43.92Zm1.07-7.61v6.69h.86a2,2,0,0,0,1.66-.65,3.12,3.12,0,0,0,.53-1.92v-1.51a3.07,3.07,0,0,0-.52-2,1.92,1.92,0,0,0-1.57-.63Z" transform="translate(-146.04 -183.07)"/><path class="cls-1" d="M192.93,185.73h-2.66v7.34H188.8v-7.34h-2.64v-1.19h6.77Z" transform="translate(-146.04 -183.07)"/><path class="cls-1" d="M200.29,184.54v5.7a2.77,2.77,0,0,1-.87,2.15,3.78,3.78,0,0,1-4.64,0,2.75,2.75,0,0,1-.86-2.17v-5.69h1.47v5.7a1.82,1.82,0,0,0,.44,1.31,1.67,1.67,0,0,0,1.27.45q1.71,0,1.71-1.8v-5.66Z" transform="translate(-146.04 -183.07)"/><path class="cls-1" d="M205,189.79h-1.66v3.28h-1.48v-8.53h3a3.48,3.48,0,0,1,2.28.66,2.7,2.7,0,0,1,.39,3.35,2.59,2.59,0,0,1-1.15.89l1.92,3.55v.08h-1.59Zm-1.66-1.2h1.53a1.65,1.65,0,0,0,1.17-.38,1.31,1.31,0,0,0,.42-1,1.4,1.4,0,0,0-.39-1.06,1.67,1.67,0,0,0-1.16-.39h-1.57Z" transform="translate(-146.04 -183.07)"/><path class="cls-1" d="M209.36,193.07v-8.53h2.92a3.57,3.57,0,0,1,2.21.58,2,2,0,0,1,.75,1.73,1.82,1.82,0,0,1-.31,1.05,2,2,0,0,1-.93.73,1.88,1.88,0,0,1,1.07.7,2.08,2.08,0,0,1,.38,1.25,2.27,2.27,0,0,1-.77,1.84,3.37,3.37,0,0,1-2.21.65Zm1.48-4.94h1.46a1.73,1.73,0,0,0,1.08-.31,1.08,1.08,0,0,0,.39-.89,1.11,1.11,0,0,0-.36-.92,1.89,1.89,0,0,0-1.13-.28h-1.44Zm0,1.09v2.66h1.65a1.6,1.6,0,0,0,1.09-.34,1.36,1.36,0,0,0-1-2.32Z" transform="translate(-146.04 -183.07)"/><path class="cls-1" d="M218.5,193.07H217v-8.53h1.48Z" transform="translate(-146.04 -183.07)"/><path class="cls-1" d="M227.08,193.07H225.6l-3.8-6v6h-1.48v-8.53h1.48l3.81,6.07v-6.07h1.47Z" transform="translate(-146.04 -183.07)"/><path class="cls-1" d="M233.82,189.26h-3.5v2.62h4.1v1.19h-5.58v-8.53h5.53v1.19h-4.05v2.36h3.5Z" transform="translate(-146.04 -183.07)"/><path class="cls-2" d="M150.61,193.69s-3.8-2.11-2-4.09,3.14-.83,3.14-.83-2.11.18-2.58,1.2C148.45,191.56,150.61,193.69,150.61,193.69Z" transform="translate(-146.04 -183.07)"/><path class="cls-2" d="M156.6,187.32s.08,4.34-2.55,3.76-2.28-2.31-2.28-2.31,1.2,1.74,2.33,1.64C155.84,190.26,156.6,187.32,156.6,187.32Z" transform="translate(-146.04 -183.07)"/><path class="cls-2" d="M148.09,185.32s3.72-2.24,4.53.32-.85,3.13-.85,3.13.9-1.91.25-2.83C151,184.51,148.09,185.32,148.09,185.32Z" transform="translate(-146.04 -183.07)"/><path class="cls-3" d="M151.54,183.32a5.46,5.46,0,0,0,0,10.91" transform="translate(-146.04 -183.07)"/><path class="cls-3" d="M152,194.23a5.46,5.46,0,0,0,0-10.91" transform="translate(-146.04 -183.07)"/></svg>